<svg xmlns="http://www.w3.org/2000/svg"  viewBox="0 0 100 100" width="50px" height="50px"><path d="M 25.669922 14.607422 C 24.727757 14.59969 23.780122 14.599422 22.826172 14.609375 A 2.0002 2.0002 0 0 0 22.810547 14.611328 C 20.653892 14.652448 18.598831 15.549015 17.105469 17.107422 C 15.611107 18.665487 14.799205 20.757289 14.849609 22.914062 C 15.023775 37.553204 13.450231 52.692106 14.203125 67.230469 A 2.0002 2.0002 0 0 0 14.205078 67.259766 C 14.499472 71.656311 18.055284 75.173894 22.455078 75.417969 C 23.019993 75.449296 23.57427 75.472457 24.136719 75.501953 C 24.157996 76.042041 24.169801 76.584791 24.197266 77.123047 C 24.424456 81.580362 28.008649 85.179881 32.464844 85.427734 C 48.51136 86.307779 63.571457 86.464669 77.21875 85.568359 A 2.0002 2.0002 0 0 0 77.232422 85.566406 C 81.713027 85.239164 85.157258 81.366804 84.960938 76.878906 A 2.0002 2.0002 0 0 0 84.960938 76.857422 C 84.445678 67.452812 84.710579 67.798232 85.054688 64.486328 C 85.398765 61.174706 85.773483 54.736155 85.429688 32.666016 L 85.429688 32.662109 C 85.401147 30.628996 84.529626 28.697066 83.025391 27.330078 C 81.520224 25.962244 79.510726 25.277662 77.482422 25.445312 C 76.799766 25.502342 76.134428 25.526584 75.458984 25.570312 C 75.444727 24.489741 75.447841 23.816323 75.429688 22.650391 C 75.402208 20.609753 74.526007 18.672795 73.013672 17.304688 C 71.502188 15.937351 69.487267 15.259659 67.457031 15.433594 L 67.451172 15.433594 C 52.710896 16.661889 39.802396 14.723398 25.669922 14.607422 z M 25.652344 18.607422 C 36.046766 18.700959 46.040654 19.832757 56.869141 19.841797 L 56.576172 20.134766 A 1.0001 1.0001 0 1 0 57.990234 21.548828 L 59.722656 19.816406 C 60.224976 19.807065 60.727967 19.79631 61.234375 19.78125 L 60.791016 20.224609 A 1.0005839 1.0005839 0 0 0 62.207031 21.638672 L 64.185547 19.660156 C 65.26847 19.602863 66.360175 19.53233 67.464844 19.443359 L 64.763672 22.144531 A 1.0001 1.0001 0 1 0 66.177734 23.558594 L 69.832031 19.904297 C 70.006645 20.011392 70.175949 20.130101 70.330078 20.269531 C 70.755101 20.65402 71.053023 21.142526 71.234375 21.673828 L 68.378906 24.529297 A 1.0001 1.0001 0 1 0 69.792969 25.943359 L 71.445312 24.291016 C 71.456384 25.064871 71.455605 25.573499 71.464844 26.306641 A 2.0002 2.0002 0 0 0 70.970703 27.085938 L 70.058594 27.8125 A 1.0001 1.0001 0 1 0 71.304688 29.376953 L 71.494141 29.226562 C 71.501687 29.986151 71.510148 30.778079 71.515625 31.490234 L 70.390625 32.386719 A 1.0001 1.0001 0 0 0 71.541016 34.019531 C 71.604605 46.792862 71.330329 51.62524 71.076172 54.072266 C 70.756611 57.148995 70.447383 57.594729 70.964844 67.052734 C 71.008263 68.045293 70.70974 68.959079 70.191406 69.710938 L 68.955078 67.466797 A 1.0001 1.0001 0 0 0 68.054688 66.9375 A 1.0001 1.0001 0 0 0 67.203125 68.431641 L 68.662109 71.080078 C 68.14613 71.351427 67.570258 71.529787 66.947266 71.576172 C 66.734716 71.590123 66.514075 71.597893 66.300781 71.611328 L 64.111328 67.855469 A 1.0001 1.0001 0 0 0 63.197266 67.347656 A 1.0001 1.0001 0 0 0 62.384766 68.863281 L 64.058594 71.736328 C 56.107224 72.166039 47.669085 72.255141 38.820312 72.056641 L 39.361328 71.519531 A 1.0001 1.0001 0 0 0 38.640625 69.800781 A 1.0001 1.0001 0 0 0 37.951172 70.101562 L 36.054688 71.986328 C 34.824239 71.950941 33.584989 71.909087 32.339844 71.863281 L 33.794922 70.417969 A 1.0001 1.0001 0 0 0 33.074219 68.699219 A 1.0001 1.0001 0 0 0 32.384766 68.998047 L 29.605469 71.759766 C 28.79385 71.725366 27.977605 71.68699 27.160156 71.648438 A 2.0002 2.0002 0 0 0 26.498047 71.365234 L 28.318359 69.910156 A 1.0001 1.0001 0 0 0 27.685547 68.121094 A 1.0001 1.0001 0 0 0 27.068359 68.347656 L 23.189453 71.449219 C 23.017689 71.439852 22.849738 71.433366 22.677734 71.423828 L 22.675781 71.423828 C 21.428955 71.354189 20.325885 70.811399 19.521484 69.976562 L 23.042969 68.392578 A 1.0001 1.0001 0 0 0 22.578125 66.476562 A 1.0001 1.0001 0 0 0 22.220703 66.568359 L 18.474609 68.255859 C 18.335337 67.857289 18.229369 67.441683 18.199219 67 C 18.14809 66.009241 18.110041 65.011913 18.080078 64.011719 L 22.826172 63.068359 A 1.0001 1.0001 0 0 0 22.605469 61.083984 A 1.0001 1.0001 0 0 0 22.4375 61.105469 L 18.033203 61.982422 C 18.014169 60.873318 18.020646 59.751721 18.021484 58.632812 L 21.941406 57.974609 A 1.0001 1.0001 0 0 0 21.777344 55.986328 A 1.0001 1.0001 0 0 0 21.609375 56.001953 L 18.019531 56.605469 C 18.029536 55.586648 18.05463 54.558719 18.076172 53.533203 L 20.033203 53.419922 A 1.0001 1.0001 0 0 0 19.988281 51.421875 A 1.0001 1.0001 0 0 0 19.917969 51.423828 L 18.117188 51.527344 C 18.140529 50.655646 18.16684 49.779904 18.195312 48.904297 L 19.875 48.806641 A 1.0001 1.0001 0 0 0 19.830078 46.808594 A 1.0001 1.0001 0 0 0 19.759766 46.810547 L 18.263672 46.896484 C 18.546332 38.953215 18.946236 30.879998 18.849609 22.84375 A 2.0002 2.0002 0 0 0 18.849609 22.820312 C 18.824009 21.725086 19.234549 20.666888 19.992188 19.876953 A 2.0002 2.0002 0 0 0 19.992188 19.875 C 20.748376 19.085874 21.790133 18.63076 22.884766 18.609375 C 23.811318 18.599818 24.733007 18.599149 25.652344 18.607422 z M 29.310547 22.6875 C 28.894719 22.635797 28.468844 22.831297 28.246094 23.216797 C 27.949094 23.730797 28.126625 24.387594 28.640625 24.683594 C 29.154625 24.980594 29.812375 24.804016 30.109375 24.291016 C 30.406375 23.778016 30.230797 23.119266 29.716797 22.822266 C 29.588297 22.748016 29.449156 22.704734 29.310547 22.6875 z M 31.689453 28.027344 C 31.273625 27.975641 30.84775 28.171141 30.625 28.556641 C 30.329 29.069641 30.504578 29.726437 31.017578 30.023438 C 31.531578 30.320437 32.189328 30.144859 32.486328 29.630859 C 32.783328 29.117859 32.60775 28.459109 32.09375 28.162109 C 31.96525 28.087859 31.828063 28.044578 31.689453 28.027344 z M 77.8125 29.431641 C 78.736195 29.355291 79.647151 29.66685 80.333984 30.291016 C 80.894718 30.800586 81.248385 31.481964 81.371094 32.21875 L 77.96875 34.185547 A 1.0001 1.0001 0 1 0 78.970703 35.916016 L 81.447266 34.482422 C 81.455915 35.092922 81.455394 35.495182 81.462891 36.080078 L 78.318359 37.673828 A 1.0001 1.0001 0 1 0 79.222656 39.457031 L 81.484375 38.310547 C 81.499178 39.679276 81.515031 41.062907 81.523438 42.285156 L 79.091797 42.154297 A 1.0001 1.0001 0 0 0 78.992188 42.152344 A 1.0001 1.0001 0 0 0 78.984375 44.152344 L 81.542969 44.289062 C 81.602034 56.88293 81.328825 61.640602 81.076172 64.072266 C 81.021866 64.594939 80.973516 65.000055 80.923828 65.427734 L 78.783203 65.431641 A 1.0001 1.0001 0 1 0 78.787109 67.431641 L 80.757812 67.427734 C 80.713536 68.16833 80.683879 69.027785 80.699219 70.251953 L 78.816406 69.541016 A 1.0001 1.0001 0 0 0 78.425781 69.472656 A 1.0001 1.0001 0 0 0 78.109375 71.412109 L 80.759766 72.414062 C 80.779627 73.00248 80.821201 73.814833 80.853516 74.53125 L 77.896484 73.267578 A 1.0001 1.0001 0 0 0 77.507812 73.181641 A 1.0001 1.0001 0 0 0 77.111328 75.107422 L 80.951172 76.748047 C 80.957912 76.873479 80.9578 76.92399 80.964844 77.052734 C 81.068429 79.420688 79.309422 81.400296 76.947266 81.576172 C 75.918884 81.643681 74.865927 81.694459 73.820312 81.75 L 73.361328 79.710938 A 1.0001 1.0001 0 0 0 72.345703 78.917969 A 1.0001 1.0001 0 0 0 71.410156 80.150391 L 71.794922 81.861328 C 71.238783 81.886564 70.66622 81.899847 70.105469 81.921875 L 69.330078 79.089844 A 1.0001 1.0001 0 0 0 68.378906 78.339844 A 1.0001 1.0001 0 0 0 67.400391 79.617188 L 68.050781 81.996094 C 67.614122 82.010113 67.187373 82.030806 66.748047 82.042969 L 65.048828 78.056641 A 1.0001 1.0001 0 0 0 64.105469 77.435547 A 1.0001 1.0001 0 0 0 63.208984 78.839844 L 64.591797 82.085938 C 58.948409 82.202944 53.095556 82.173799 47.058594 82.015625 L 45.757812 80.078125 A 1.0001 1.0001 0 0 0 44.914062 79.623047 A 1.0001 1.0001 0 0 0 44.097656 81.191406 L 44.609375 81.953125 C 43.870019 81.929739 43.117624 81.89815 42.373047 81.871094 L 41.599609 79.65625 A 1.0001 1.0001 0 0 0 40.601562 78.974609 A 1.0001 1.0001 0 0 0 39.710938 80.314453 L 40.224609 81.789062 C 39.510611 81.759994 38.800589 81.733451 38.082031 81.701172 L 36.806641 78.996094 A 1.0001 1.0001 0 0 0 35.939453 78.410156 A 1.0001 1.0001 0 0 0 34.998047 79.849609 L 35.818359 81.587891 C 34.774604 81.536563 33.738379 81.491331 32.685547 81.433594 L 32.683594 81.433594 C 30.236729 81.296521 28.318136 79.367949 28.193359 76.919922 C 28.172776 76.516545 28.163779 76.108092 28.146484 75.703125 C 42.073135 76.329293 55.195292 76.357904 67.21875 75.568359 A 2.0002 2.0002 0 0 0 67.232422 75.566406 C 71.713027 75.239164 75.157258 71.366804 74.960938 66.878906 A 2.0002 2.0002 0 0 0 74.960938 66.857422 C 74.445677 57.452301 74.710583 57.799371 75.054688 54.486328 C 75.355522 51.589886 75.651084 45.64126 75.498047 29.599609 C 76.264448 29.551441 77.0353 29.496555 77.8125 29.431641 z M 24.902344 30.308594 C 24.486516 30.257125 24.060641 30.453141 23.837891 30.837891 C 23.540891 31.351891 23.716469 32.009641 24.230469 32.306641 C 24.744469 32.603641 25.402219 32.427062 25.699219 31.914062 C 25.996219 31.401063 25.820641 30.742313 25.306641 30.445312 C 25.178141 30.371062 25.040953 30.32575 24.902344 30.308594 z M 61.599609 32.050781 A 2.0002 2.0002 0 0 0 60.345703 32.445312 C 53.543225 37.352444 48.118217 44.8959 43.513672 53.158203 C 40.231205 49.603649 35.955805 46.483045 30.351562 43.986328 A 2.0004513 2.0004513 0 1 0 28.722656 47.640625 C 34.967795 50.422865 39.271691 53.866514 42.277344 57.792969 A 2.0002 2.0002 0 0 0 45.632812 57.511719 C 50.366712 48.546062 56.027728 40.492231 62.685547 35.689453 A 2.0002 2.0002 0 0 0 61.599609 32.050781 z"/></svg>